<svg width="24" height="24" viewBox="0 0 24 24" fill="none" xmlns="http://www.w3.org/2000/svg">
<path d="M21.1575 1.8C21.7648 2.14012 22.2121 2.70751 22.4012 3.37741C22.5902 4.04731 22.5054 4.76485 22.1655 5.37225L13.533 20.7878C13.3144 21.1783 13.0111 21.5149 12.6455 21.7731C12.2799 22.0312 11.8611 22.2043 11.42 22.2796C10.9788 22.3548 10.5263 22.3305 10.0958 22.2082C9.66525 22.086 9.26752 21.8689 8.93174 21.573L2.38949 15.81C1.86715 15.3497 1.54905 14.7008 1.50516 14.006C1.46128 13.3111 1.69521 12.6273 2.15549 12.105C2.61578 11.5827 3.26471 11.2646 3.95953 11.2207C4.65435 11.1768 5.33815 11.4107 5.86049 11.871L10.3125 15.7935L17.5845 2.808C17.7529 2.5072 17.9789 2.24252 18.2496 2.02906C18.5203 1.81561 18.8304 1.65757 19.1622 1.56397C19.494 1.47036 19.841 1.44303 20.1833 1.48353C20.5257 1.52403 20.8567 1.63157 21.1575 1.8Z" fill="#9BD27A"/>
</svg>
